<svg width="673" height="174" viewBox="0 0 673 174" fill="none" xmlns="http://www.w3.org/2000/svg">
<g filter="url(#filter0_bii_113_127)">
<rect width="654.936" height="170.248" transform="matrix(-0.999995 0.00322114 -0.00878442 -0.999961 670.692 171.241)" fill="#41009C" fill-opacity="0.8"/>
</g>
<path d="M17.442 3.1792H670.692V171.243H475.3H17.442V129.021V68.8573M17.442 3.1792H3V68.8573H17.442M17.442 3.1792V68.8573" stroke="#41009C" stroke-width="4.5"/>
<path d="M249.485 58.684V60.1967C249.485 70.2097 249.485 80.2205 249.485 90.2335C249.485 93.0361 249.638 95.8199 250.462 98.5216C251.502 101.934 253.947 104.455 257.998 104.667C260.332 104.789 262.59 104.612 264.633 103.295C267.246 101.608 268.557 99.0784 269.112 96.1518C269.442 94.4122 269.578 92.6118 269.586 90.8365C269.628 80.6155 269.607 70.3924 269.607 60.1694C269.607 59.1791 270.108 58.6833 271.108 58.6819C273.977 58.6819 276.849 58.6819 279.719 58.6819C280.641 58.6819 281.101 59.1448 281.1 60.0706C281.074 70.2916 280.986 80.5147 281.07 90.7356C281.091 93.2967 281.442 95.9039 282.03 98.3977C282.875 101.965 285.566 104.581 290.043 104.7C293.808 104.801 296.903 103.719 298.999 100.444C300.228 98.5237 300.817 96.3808 300.997 94.1307C301.111 92.7378 301.153 91.3344 301.153 89.9352C301.153 79.9936 301.136 70.0521 301.125 60.1105C301.125 58.6861 301.13 58.6861 302.569 58.684C305.579 58.684 308.59 58.684 311.601 58.684C311.977 58.684 312.355 58.684 312.798 58.684V114.436C312.181 114.436 311.596 114.436 311.012 114.436C308.212 114.436 305.411 114.4 302.611 114.457C301.714 114.474 301.413 114.121 301.428 113.308C301.441 112.699 301.43 112.089 301.298 111.4C297.014 114.959 292.188 116.174 286.806 115.539C281.419 114.905 277.192 112.341 274.04 108.022C272.786 109.213 271.725 110.415 270.477 111.375C265.662 115.075 260.16 116.403 254.22 115.407C247.592 114.295 243.121 110.316 240.417 104.238C238.699 100.377 238.043 96.2821 238.008 92.1201C237.915 81.4076 237.98 70.695 237.942 59.9824C237.938 58.9866 238.201 58.642 239.23 58.663C242.239 58.7239 245.252 58.684 248.262 58.684C248.607 58.684 248.951 58.684 249.485 58.684Z" fill="#CF152D"/>
<path d="M189.477 110.717C189.477 111.423 189.477 111.864 189.477 112.308C189.481 119.167 189.487 126.029 189.489 132.888C189.489 134.277 189.479 134.29 188.079 134.292C185.21 134.296 182.34 134.294 179.47 134.292C177.762 134.292 177.758 134.285 177.758 132.615C177.758 118.579 177.758 104.543 177.758 90.5086C177.758 80.462 177.758 70.4175 177.758 60.3709C177.758 59.2462 178.335 58.6832 179.489 58.6818C182.289 58.6818 185.09 58.6818 187.888 58.6818C188.262 58.6818 188.638 58.6818 189.151 58.6818V62.808C190.061 62.142 190.729 61.6231 191.424 61.1462C195.767 58.1607 200.62 57.0998 205.809 57.4485C210.698 57.7763 215.188 59.27 219.207 62.1525C222.671 64.6379 225.316 67.8124 227.262 71.5562C229.873 76.5816 230.982 81.9915 230.772 87.6282C230.497 95.0172 228.268 101.719 223.261 107.316C220.011 110.951 216.017 113.421 211.303 114.73C207.647 115.745 203.935 116.012 200.202 115.447C196.683 114.915 193.447 113.602 190.603 111.406C190.325 111.192 190.004 111.037 189.479 110.717H189.477ZM189.096 86.5757C189.096 87.311 189.069 88.0463 189.1 88.7795C189.262 92.5255 190.384 95.9752 192.598 98.9942C195.42 102.843 199.246 104.738 204.074 104.705C207.072 104.683 209.79 103.944 212.208 102.196C216.505 99.0929 218.324 94.5802 218.902 89.5674C219.347 85.708 219.013 81.8633 217.591 78.1363C215.501 72.6592 210.622 68.0771 203.393 68.4132C198.615 68.6359 194.937 70.6696 192.281 74.5815C189.829 78.1972 188.892 82.2457 189.096 86.5757Z" fill="#CF152D"/>
<path d="M57.6395 76.7711V114.344C57.2572 114.38 56.9609 114.432 56.6626 114.432C53.4419 114.438 50.2212 114.407 47.0005 114.455C46.1475 114.468 45.929 114.172 45.929 113.373C45.9437 95.5533 45.9458 77.7333 45.9248 59.9133C45.9248 58.9679 46.2778 58.7242 47.1643 58.7368C50.0342 58.7788 52.9062 58.7221 55.776 58.7809C56.3054 58.7914 56.9777 59.0246 57.3265 59.3965C62.8141 65.2601 68.2702 71.1553 73.7053 77.0694C74.4553 77.8867 75.0793 78.8237 75.7284 79.7271C76.0898 80.2292 76.3671 80.2439 76.7852 79.7754C81.0522 74.9643 85.3233 70.1574 89.6176 65.3673C91.3614 63.4239 93.1745 61.5436 94.9224 59.6045C95.4834 58.9805 96.099 58.7242 96.9393 58.7368C99.6348 58.7767 102.33 58.7494 105.026 58.7515C106.111 58.7515 106.655 59.2816 106.656 60.3419C106.656 71.9999 106.656 83.6579 106.656 95.318C106.656 101.27 106.633 107.222 106.677 113.174C106.685 114.193 106.381 114.478 105.377 114.459C102.261 114.399 99.1453 114.405 96.0296 114.457C95.1031 114.472 94.8468 114.188 94.8489 113.266C94.8783 101.642 94.8678 90.0195 94.8678 78.3951V76.7921C94.4413 77.1219 94.1976 77.2774 93.9959 77.4728C90.1323 81.2229 86.5902 85.2231 84.0985 90.0531C82.6867 92.7906 81.6152 95.6478 81.1425 98.6984C81.0396 99.3623 80.7517 99.503 80.1929 99.503C77.6025 99.4967 75.0141 99.4904 72.4237 99.5114C71.7787 99.5156 71.4468 99.2467 71.3522 98.6269C70.6127 93.7696 68.5685 89.4333 65.6356 85.5823C63.4339 82.6915 60.8497 80.0905 58.4295 77.3677C58.2719 77.1913 58.0471 77.0757 57.6353 76.7732L57.6395 76.7711Z" fill="#CF152D"/>
<path d="M601.544 72.6469C601.536 70.6553 602.273 68.8947 603.189 67.214C605.437 63.0941 608.994 60.5604 613.349 59.054C618.196 57.3775 623.2 57.0182 628.236 57.6695C634.171 58.4363 639.514 60.5057 643.096 65.695C644.693 68.006 645.605 70.588 645.685 73.4117C645.783 76.9454 645.838 80.4792 645.876 84.015C645.949 90.9438 645.966 97.8748 646.069 104.804C646.117 108.06 646.857 111.203 648 114.342C647.68 114.369 647.38 114.415 647.077 114.417C643.926 114.428 640.775 114.405 637.625 114.455C636.814 114.468 636.415 114.17 636.182 113.432C635.848 112.375 635.451 111.34 635.048 110.209C634.018 110.852 633.045 111.503 632.035 112.088C626.923 115.046 621.438 116.186 615.555 115.554C611.171 115.083 607.116 113.825 603.679 110.959C601.042 108.762 599.315 105.98 598.376 102.675C597.517 99.648 597.487 96.5932 598.019 93.5343C598.819 88.9333 601.368 85.5193 605.393 83.2104C609.288 80.9771 613.566 80.1346 617.988 79.7691C621.329 79.4938 624.669 79.1829 627.984 78.7018C629.438 78.4917 630.863 77.9118 632.232 77.3362C635.581 75.9328 634.985 72.2457 632.989 70.5838C631.274 69.1552 629.163 68.7077 627.052 68.5333C624.791 68.3485 622.493 68.3359 620.234 68.5291C617.465 68.7644 614.893 69.5859 613.427 72.3087C613.293 72.5566 612.883 72.8003 612.601 72.8024C609.032 72.8234 605.462 72.7982 601.893 72.7814C601.828 72.7814 601.765 72.7331 601.546 72.6469H601.544ZM634.587 87.3198C630.413 89.1329 626.222 89.6434 621.974 89.9501C618.986 90.1665 616.009 90.509 613.164 91.5909C609.297 93.0637 608.463 96.442 609.918 99.6459C611.374 102.852 614.312 104.175 617.604 104.615C620.707 105.028 623.694 104.35 626.562 103.108C629.959 101.638 632.829 99.6354 634.041 95.9104C634.943 93.1456 634.453 90.3073 634.585 87.3177L634.587 87.3198Z" fill="#CF152D"/>
<path d="M560.184 114.436C557.047 114.436 554.112 114.436 551.177 114.436C549.349 114.436 548.435 113.517 548.435 111.678C548.435 88.1473 548.435 64.6191 548.435 41.0888C548.435 40.6687 548.45 40.2485 548.439 39.8283C548.425 39.2737 548.633 38.9963 549.236 39.0005C552.702 39.0194 556.169 39.0152 559.635 39.0236C559.766 39.0236 559.898 39.0825 560.133 39.1413V77.1721C560.595 76.8486 560.89 76.6973 561.114 76.4767C567.089 70.5521 573.066 64.6296 579.014 58.6756C579.899 57.7912 580.781 57.3311 582.105 57.3626C586.374 57.4613 590.647 57.3983 594.918 57.3983H596.301C595.958 57.8101 595.792 58.0517 595.584 58.2513C587.649 65.9175 579.71 73.5817 571.772 81.2437C570.707 82.2711 570.713 82.2837 571.701 83.393C579.441 92.0677 587.176 100.744 594.916 109.419C596.347 111.022 597.788 112.617 599.343 114.348C598.874 114.386 598.576 114.432 598.275 114.432C593.584 114.436 588.891 114.455 584.199 114.405C583.689 114.398 583.033 114.119 582.699 113.743C575.919 106.129 569.176 98.4839 562.429 90.8407C561.751 90.0718 561.098 89.2797 560.434 88.5003C560.352 88.5381 560.27 88.5759 560.186 88.6137V114.436H560.184Z" fill="#CF152D"/>
<path d="M114.056 87.7186C114.003 78.6006 116.739 71.6592 122.26 65.8858C125.813 62.1714 130.138 59.6692 135.147 58.3561C138.887 57.375 142.677 57.0914 146.465 57.6817C154.522 58.9381 160.961 62.9277 165.612 69.6549C169.476 75.2433 171.213 81.5125 170.776 88.2522C170.171 97.6076 166.123 105.234 158.45 110.738C155.265 113.024 151.683 114.497 147.765 115.184C137.479 116.989 128.748 114.077 121.6 106.558C118.443 103.236 116.352 99.24 115.125 94.784C114.386 92.0969 114.005 89.3909 114.052 87.7186H114.056ZM159.108 87.2816C159.072 84.0147 158.625 81.1826 157.274 78.2077C154.137 71.2978 146.799 66.9804 138.87 68.825C132.115 70.3965 128.248 74.966 126.367 81.3591C125.26 85.1218 125.409 88.9371 126.668 92.702C128.407 97.9038 131.586 101.78 136.813 103.709C141.754 105.532 146.568 105.104 150.996 102.209C156.589 98.553 158.906 93.1095 159.106 87.2816H159.108Z" fill="#CF152D"/>
<path d="M415.069 90.9209H413.924C407.029 90.9209 400.131 90.9419 393.236 90.8978C392.249 90.8915 391.999 91.1982 392.003 92.1436C392.037 99.1439 392.003 106.146 392.041 113.146C392.047 114.138 391.799 114.481 390.761 114.46C387.681 114.394 384.601 114.436 381.521 114.436C381.177 114.436 380.832 114.436 380.397 114.436V58.7411C380.723 58.7222 381.059 58.6886 381.395 58.6886C384.547 58.6844 387.696 58.718 390.847 58.6655C391.763 58.6508 392.049 58.9092 392.043 59.8441C392.005 66.109 392.022 72.3761 392.024 78.641C392.024 80.0171 392.03 80.0213 393.44 80.0213C400.23 80.0213 407.022 79.9982 413.813 80.0465C414.899 80.0549 415.197 79.681 415.193 78.6641C415.166 72.5042 415.178 66.3422 415.18 60.1823C415.18 58.6865 415.184 58.6865 416.689 58.6865C419.664 58.6865 422.641 58.7285 425.616 58.6634C426.628 58.6403 426.91 58.9302 426.908 59.947C426.872 71.0441 426.885 82.1411 426.885 93.2361C426.885 99.8876 426.861 106.539 426.908 113.189C426.914 114.224 426.592 114.478 425.599 114.46C422.555 114.399 419.508 114.397 416.464 114.46C415.424 114.481 415.157 114.117 415.163 113.134C415.195 106.272 415.182 99.4128 415.176 92.5512C415.176 92.0386 415.113 91.528 415.073 90.923L415.069 90.9209Z" fill="#CF152D"/>
<path d="M496.009 87.2104C496.009 78.1428 496.026 69.0753 495.986 60.0077C495.982 58.9594 496.24 58.6295 497.324 58.6568C500.404 58.7346 503.486 58.7135 506.566 58.6652C507.453 58.6505 507.709 58.9552 507.703 59.8102C507.671 63.9763 507.688 68.1425 507.688 72.3086C507.688 73.3605 508.231 73.8885 509.318 73.8927C512.854 73.8948 516.39 73.8717 519.926 73.9011C524.231 73.9368 528.294 74.8591 531.928 77.292C536.55 80.3845 539.559 84.5717 540.883 90.0151C541.584 92.8976 541.7 95.7927 541.141 98.6415C540.046 104.217 537.185 108.739 532.464 112.022C528.83 114.55 524.794 115.749 520.392 115.756C512.621 115.768 504.848 115.745 497.076 115.781C496.152 115.785 495.988 115.445 495.99 114.623C496.013 105.486 496.005 96.3473 496.005 87.2104H496.009ZM507.692 94.7695C507.692 97.7444 507.699 100.719 507.686 103.694C507.684 104.335 507.774 104.745 508.587 104.736C512.541 104.698 516.497 104.74 520.451 104.692C525.046 104.633 528.895 100.959 529.643 96.4419C530.638 90.4227 526.004 84.9687 519.913 84.8994C516.239 84.8574 512.564 84.9162 508.89 84.8721C507.982 84.8616 507.659 85.1221 507.673 86.057C507.722 88.9605 507.69 91.8661 507.692 94.7716V94.7695Z" fill="#CF152D"/>
<path d="M358.086 114.375V111.32C356.726 112.154 355.59 112.951 354.369 113.583C351.069 115.295 347.507 115.858 343.831 115.671C339.827 115.467 336.093 114.419 332.793 112.014C329.87 109.883 327.82 107.097 326.372 103.837C324.826 100.349 324.084 96.6831 324.084 92.8658C324.084 81.838 324.078 70.8082 324.076 59.7805C324.076 59.4696 324.107 59.1586 324.128 58.7384C324.544 58.7195 324.916 58.688 325.288 58.6859C328.299 58.6817 331.311 58.7237 334.32 58.6607C335.297 58.6397 335.564 58.9359 335.56 59.896C335.526 70.3649 335.541 80.8317 335.526 91.3006C335.522 94.0108 335.753 96.6726 336.887 99.179C338.497 102.738 341.312 104.469 345.167 104.675C348.136 104.833 350.951 104.44 353.365 102.543C355.604 100.784 356.928 98.4353 357.323 95.6537C357.615 93.5927 357.735 91.4918 357.743 89.4098C357.785 79.6426 357.762 69.8733 357.762 60.1061C357.762 59.6901 357.762 59.2721 357.762 58.833C357.989 58.7762 358.153 58.7006 358.319 58.7006C361.785 58.6922 365.252 58.7006 368.716 58.6817C369.281 58.6796 369.584 58.8519 369.542 59.459C369.525 59.7028 369.542 59.9486 369.542 60.1944C369.542 77.7707 369.542 95.3448 369.542 112.921C369.542 113.934 369.027 114.441 367.996 114.442C365.126 114.442 362.254 114.442 359.384 114.44C359.01 114.44 358.634 114.409 358.084 114.383L358.086 114.375Z" fill="#CF152D"/>
<path d="M487.433 96.6583C486.962 100.043 485.778 103.012 483.908 105.709C481.059 109.821 477.179 112.512 472.466 114.123C467.811 115.716 463.041 116.174 458.222 115.43C451.131 114.335 445.415 110.84 441.133 105.028C438.633 101.635 436.984 97.8538 436.108 93.7738C435.145 89.2925 435.08 84.7755 435.967 80.2334C437.148 74.1785 439.77 68.9304 444.196 64.6067C447.564 61.3167 451.572 59.1422 456.125 58.1002C459.999 57.2157 463.922 57.201 467.88 57.8922C471.821 58.5792 475.445 59.9238 478.723 62.1949C482.937 65.1151 485.83 68.9913 487.072 74.0125C487.116 74.1953 486.731 74.6911 486.544 74.6932C482.975 74.7353 479.403 74.7374 475.834 74.6953C475.542 74.6911 475.141 74.3718 474.981 74.0924C473.204 70.9284 470.374 69.3149 466.911 68.8611C464.609 68.5586 462.209 68.2791 459.936 68.5901C455.734 69.1636 452.432 71.4578 450.177 75.0882C447.184 79.9098 446.541 85.1705 447.438 90.6959C448.045 94.4335 449.474 97.7718 452.138 100.511C454.644 103.089 457.688 104.516 461.304 104.669C464.478 104.806 467.579 104.566 470.453 103.022C472.8 101.761 474.38 99.8665 475.315 97.3874C475.424 97.0953 475.781 96.6899 476.027 96.6878C479.798 96.6436 483.572 96.6562 487.433 96.6562V96.6583Z" fill="#CF152D"/>
<defs>
<filter id="filter0_bii_113_127" x="-28.2806" y="-41.5447" width="741.518" height="257.441" filterUnits="userSpaceOnUse" color-interpolation-filters="sRGB">
<feFlood flood-opacity="0" result="BackgroundImageFix"/>
<feGaussianBlur in="BackgroundImageFix" stdDeviation="21.2724"/>
<feComposite in2="SourceAlpha" operator="in" result="effect1_backgroundBlur_113_127"/>
<feBlend mode="normal" in="SourceGraphic" in2="effect1_backgroundBlur_113_127" result="shape"/>
<feColorMatrix in="SourceAlpha" type="matrix" values="0 0 0 0 0 0 0 0 0 0 0 0 0 0 0 0 0 0 127 0" result="hardAlpha"/>
<feOffset dx="-21.2724" dy="21.2724"/>
<feGaussianBlur stdDeviation="10.6362"/>
<feComposite in2="hardAlpha" operator="arithmetic" k2="-1" k3="1"/>
<feColorMatrix type="matrix" values="0 0 0 0 1 0 0 0 0 1 0 0 0 0 1 0 0 0 0.1 0"/>
<feBlend mode="normal" in2="shape" result="effect2_innerShadow_113_127"/>
<feColorMatrix in="SourceAlpha" type="matrix" values="0 0 0 0 0 0 0 0 0 0 0 0 0 0 0 0 0 0 127 0" result="hardAlpha"/>
<feOffset dx="21.2724" dy="-21.2724"/>
<feGaussianBlur stdDeviation="10.6362"/>
<feComposite in2="hardAlpha" operator="arithmetic" k2="-1" k3="1"/>
<feColorMatrix type="matrix" values="0 0 0 0 0.76 0 0 0 0 0.713375 0 0 0 0 0.433631 0 0 0 0.1 0"/>
<feBlend mode="normal" in2="effect2_innerShadow_113_127" result="effect3_innerShadow_113_127"/>
</filter>
</defs>
</svg>
