<svg width="339" height="262" viewBox="0 0 339 262" fill="none" xmlns="http://www.w3.org/2000/svg">
<path d="M6.07585 208.5L6.09361 231.143L43.0435 231.143L85.0435 251.663L109.044 251.589L139.02 251.536L162.769 251.568L177.544 239.673L207.043 239.673L241.043 239.673L265.543 251.536L292.544 251.536L308.543 251.536L320.463 233.293L320.463 160.769L320.463 141.576L320.463 111.721L332.955 90.749L332.949 79.6633L332.93 44.3001L320.356 38.0487L302.943 28.4316L302.943 14.1572L265.543 14.1572L120.544 14.1572L85.0435 2.29842L34.6322 2.03873L19.069 2.02528L6.07571 14.1572L6.09361 48L14 61L14 96.5L14 121.5L14 149.5L6.07603 169.361L6.07585 208.5Z" fill="#42019B" fill-opacity="0.5" shape-rendering="crispEdges"/>
<path d="M6.07585 208.5L6.09361 231.143L43.0435 231.143L85.0435 251.663L109.044 251.589L139.02 251.536L162.769 251.568L177.544 239.673L207.043 239.673L241.043 239.673L265.543 251.536L292.544 251.536L308.543 251.536L320.463 233.293L320.463 160.769L320.463 141.576L320.463 111.721L332.955 90.749L332.949 79.6633L332.93 44.3001L320.356 38.0487L302.943 28.4316L302.943 14.1572L265.543 14.1572L120.544 14.1572L85.0435 2.29842L34.6322 2.03873L19.069 2.02528L6.07571 14.1572L6.09361 48L14 61L14 96.5L14 121.5L14 149.5L6.07603 169.361L6.07585 208.5Z" stroke="#FFB800" stroke-width="4" stroke-miterlimit="16" shape-rendering="crispEdges"/>
</svg>
