<svg width="1069" height="49" viewBox="0 0 1069 49" fill="none" xmlns="http://www.w3.org/2000/svg">
<path d="M146.893 1.99988L109.853 46.8229L51.0238 46.8229L85.8853 1.99988L146.893 1.99988Z" fill="#FFB904" fill-opacity="0.5"/>
<path d="M51.0238 1.99989L13.9836 46.8229L1.99988 46.8229L1.99987 1.99989L51.0238 1.99989Z" fill="#FFB904" fill-opacity="0.5"/>
<path d="M146.893 1.99988L109.853 46.8229L51.0238 46.8229L85.8853 1.99988L146.893 1.99988Z" stroke="#FFB904" stroke-opacity="0.5" stroke-width="3"/>
<path d="M51.0238 1.99989L13.9836 46.8229L1.99988 46.8229L1.99987 1.99989L51.0238 1.99989Z" stroke="#FFB904" stroke-opacity="0.5" stroke-width="3"/>
<path d="M243.26 1.99988L206.22 46.8229L147.391 46.8229L182.252 1.99988L243.26 1.99988Z" fill="#FFB904" fill-opacity="0.5" stroke="#FFB904" stroke-opacity="0.5" stroke-width="3"/>
<path d="M338.88 1.99988L301.84 46.8229L243.011 46.8229L277.873 1.99988L338.88 1.99988Z" fill="#FFB904" fill-opacity="0.5" stroke="#FFB904" stroke-opacity="0.5" stroke-width="3"/>
<path d="M434.5 1.99988L397.46 46.8229L338.631 46.8229L373.492 1.99988L434.5 1.99988Z" fill="#FFB904" fill-opacity="0.5" stroke="#FFB904" stroke-opacity="0.5" stroke-width="3"/>
<path d="M530.121 1.99988L493.08 46.8229L434.251 46.8229L469.113 1.99988L530.121 1.99988Z" fill="#FFB904" fill-opacity="0.5" stroke="#FFB904" stroke-opacity="0.5" stroke-width="3"/>
<path d="M625.741 1.99988L588.7 46.8229L529.871 46.8229L564.733 1.99988L625.741 1.99988Z" fill="#FFB904" fill-opacity="0.5" stroke="#FFB904" stroke-opacity="0.5" stroke-width="3"/>
<path d="M721.36 1.99988L684.32 46.8229L625.491 46.8229L660.353 1.99988L721.36 1.99988Z" fill="#FFB904" fill-opacity="0.5" stroke="#FFB904" stroke-opacity="0.5" stroke-width="3"/>
<path d="M816.981 1.99988L779.94 46.8229L721.112 46.8229L755.973 1.99988L816.981 1.99988Z" fill="#FFB904" fill-opacity="0.5" stroke="#FFB904" stroke-opacity="0.5" stroke-width="3"/>
<path d="M912.601 1.99988L875.56 46.8229L816.732 46.8229L851.593 1.99988L912.601 1.99988Z" fill="#FFB904" fill-opacity="0.5" stroke="#FFB904" stroke-opacity="0.5" stroke-width="3"/>
<path d="M1008.22 1.99988L971.18 46.8229L912.352 46.8229L947.213 1.99988L1008.22 1.99988Z" fill="#FFB904" fill-opacity="0.5" stroke="#FFB904" stroke-opacity="0.5" stroke-width="3"/>
<path d="M1066.8 1.99988L1066.8 46.8229L1007.97 46.8229L1042.83 1.99988L1066.8 1.99988Z" fill="#FFB904" fill-opacity="0.5" stroke="#FFB904" stroke-opacity="0.5" stroke-width="3"/>
</svg>
