<svg width="332" height="230" viewBox="0 0 332 230" fill="none" xmlns="http://www.w3.org/2000/svg">
<path d="M2.04234 197.377L2.04246 213.158L51.1003 213.158L53.4352 213.159L73.3222 213.138L109.322 213.159L134.976 227.91L158.725 227.921L163.493 227.923L223.613 227.951L228.381 227.954L287.94 227.982L292.708 227.984L316.43 210.514L316.429 132.407L329.764 110.019L329.821 47.913L309.321 29.4517L309.321 11.4999L296 1.99995L262.5 1.99999L62.5 1.99998L33.4999 1.99997L24.5 1.99997L20 6L2.18975 21.4621L2.13563 80.3363L2.13551 92.7545L2.06363 170.945L2.04223 182.015L2.04234 197.377Z" fill="#42019B" fill-opacity="0.5" stroke="#FFB800" stroke-width="4" stroke-miterlimit="16"/>
</svg>
